<?xml version="1.0" encoding="utf-8"?>
<!-- Generator: Adobe Illustrator 19.0.0, SVG Export Plug-In . SVG Version: 6.00 Build 0)  -->
<svg version="1.1" id="Warstwa_1" xmlns="http://www.w3.org/2000/svg" xmlns:xlink="http://www.w3.org/1999/xlink" x="0px" y="0px"
	 viewBox="0 0 800 800" style="enable-background:new 0 0 800 800;" xml:space="preserve">
<style type="text/css">
	.st0{fill:url(#XMLID_19_);stroke:url(#XMLID_35_);stroke-miterlimit:10;}
	.st1{fill:url(#XMLID_36_);}
	.st2{fill:#FFFFFF;}
	.st3{fill:url(#XMLID_37_);}
	.st4{fill:#DDD9D9;stroke:url(#XMLID_38_);stroke-miterlimit:10;}
	.st5{fill:#DDD9D9;stroke:url(#XMLID_39_);stroke-miterlimit:10;}
	.st6{fill:#DDD9D9;stroke:url(#XMLID_40_);stroke-miterlimit:10;}
	.st7{fill:#F7941E;stroke:#F7941E;stroke-miterlimit:10;}
	.st8{fill:#FEDB31;}
	.st9{fill:#DA1F26;}
	.st10{fill:#27236A;}
	.st11{fill:#293792;}
</style>
<radialGradient id="XMLID_19_" cx="394.5273" cy="395.7043" r="149.7392" gradientUnits="userSpaceOnUse">
	<stop  offset="0" style="stop-color:#5BCBF5"/>
	<stop  offset="0.1066" style="stop-color:#58C7F2"/>
	<stop  offset="0.1472" style="stop-color:#51BFEB"/>
	<stop  offset="0.2541" style="stop-color:#38B0DE"/>
	<stop  offset="0.4619" style="stop-color:#008DC0"/>
	<stop  offset="0.5635" style="stop-color:#007CB1"/>
	<stop  offset="0.6447" style="stop-color:#006EA6"/>
	<stop  offset="0.7157" style="stop-color:#006294"/>
	<stop  offset="0.8325" style="stop-color:#005885"/>
	<stop  offset="0.9137" style="stop-color:#0075A6"/>
	<stop  offset="0.9645" style="stop-color:#0097D0"/>
</radialGradient>
<radialGradient id="XMLID_35_" cx="407.5405" cy="418.5494" r="128.1628" gradientUnits="userSpaceOnUse">
	<stop  offset="0" style="stop-color:#49C8F5"/>
	<stop  offset="5.076142e-003" style="stop-color:#49BBE7"/>
	<stop  offset="0.8426" style="stop-color:#232663"/>
</radialGradient>
<circle id="XMLID_4_" class="st0" cx="407.5" cy="418.5" r="127.7"/>
<linearGradient id="XMLID_36_" gradientUnits="userSpaceOnUse" x1="403.9031" y1="403.5798" x2="404.4648" y2="281.6747">
	<stop  offset="0" style="stop-color:#FFFFFF;stop-opacity:0"/>
	<stop  offset="1" style="stop-color:#FFFFFF"/>
</linearGradient>
<ellipse id="XMLID_1_" class="st1" cx="403.9" cy="412.9" rx="99.8" ry="102"/>
<path id="XMLID_17_" class="st2" d="M789,204.7"/>
<linearGradient id="XMLID_37_" gradientUnits="userSpaceOnUse" x1="401.1651" y1="411.4559" x2="402.095" y2="209.6588">
	<stop  offset="0" style="stop-color:#FFFFFF;stop-opacity:0"/>
	<stop  offset="1" style="stop-color:#FFFFFF"/>
</linearGradient>
<ellipse id="XMLID_2_" class="st3" cx="401.1" cy="426.8" rx="165.9" ry="168.9"/>
<linearGradient id="XMLID_38_" gradientUnits="userSpaceOnUse" x1="601.9131" y1="250.3094" x2="601.923" y2="248.1726">
	<stop  offset="0" style="stop-color:#FFFFFF;stop-opacity:0"/>
	<stop  offset="1" style="stop-color:#FFFFFF"/>
</linearGradient>
<ellipse id="XMLID_8_" class="st4" cx="601.9" cy="249.2" rx="0.3" ry="0.6"/>
<linearGradient id="XMLID_39_" gradientUnits="userSpaceOnUse" x1="501.5971" y1="162.2818" x2="501.6024" y2="161.1405">
	<stop  offset="0" style="stop-color:#FFFFFF;stop-opacity:0"/>
	<stop  offset="1" style="stop-color:#FFFFFF"/>
</linearGradient>
<ellipse id="XMLID_9_" class="st5" cx="501.6" cy="161.7" rx="0" ry="0.6"/>
<linearGradient id="XMLID_40_" gradientUnits="userSpaceOnUse" x1="578.3255" y1="456.6297" x2="578.3354" y2="454.493">
	<stop  offset="0" style="stop-color:#FFFFFF;stop-opacity:0"/>
	<stop  offset="1" style="stop-color:#FFFFFF"/>
</linearGradient>
<circle id="XMLID_10_" class="st6" cx="578.3" cy="455.6" r="0.6"/>
<path id="XMLID_13_" class="st7" d="M436.1,502.2"/>
<path id="XMLID_11_" class="st7" d="M430.3,446.6"/>
<path id="XMLID_16_" class="st8" d="M305,301.6c-8.5,9.9-14.8,21.8-18.3,34.8c13.3-15.8,33.4-26.4,54.6-30.5
	c44.2-9,94.2,1.5,118.2,39c-0.7-4.2-1.7-8.2-2.9-12.2C420.4,290.7,356.2,285.7,305,301.6z"/>
<path id="XMLID_18_" class="st9" d="M316.8,290.2c-4.3,3.4-8.2,7.3-11.8,11.4c51.2-15.9,115.4-10.9,151.6,31
	c-1.5-4.9-3.5-9.6-5.8-14.1C415.7,286.9,363.1,280.2,316.8,290.2z"/>
<path id="XMLID_21_" d="M445.3,310.8c-28.1-25.7-68.6-40.4-106.2-33.8c-8.1,3.3-15.6,7.7-22.3,13.1c46.3-10,98.9-3.3,134,28.3
	c-1-1.8-2-3.7-3-5.4C447,312.3,446.2,311.6,445.3,310.8z"/>
<path id="XMLID_28_" class="st10" d="M451.5,391.3c-0.2-0.9-0.5-1.9-0.7-2.8c-16.5-8.7-34.6-12.8-52.6-12.9c0.4,0.9,0.7,1.9,1,2.8
	C417.6,376.1,434.6,383.4,451.5,391.3z"/>
<path id="XMLID_20_" class="st11" d="M324.8,337.1c-20.1,7.8-38.1,21.8-48.3,39.7c-0.6,7.5-0.3,15.1,1.1,22.9c0,0.2,0.1,0.3,0.1,0.5
	c9.1-14.1,21.5-25.4,35.8-33.9c2.3-10.7,6.4-21.1,12.8-29.6C325.8,336.7,325.3,336.9,324.8,337.1z"/>
<path id="XMLID_15_" class="st2" d="M326.3,336.5c-6.4,8.6-10.6,18.9-12.8,29.6c21.1-12.6,46.4-19.2,71.8-19.4
	c2.7-6.5,5.9-12.9,9.7-18.9C372.5,324.5,348.2,328,326.3,336.5z"/>
<path id="XMLID_23_" class="st9" d="M451.8,369.5c-0.1-0.4-0.1-0.8-0.2-1.2c-0.9-4.8-2.1-9.4-3.6-13.8c-14.1-15.2-32.8-23.7-53-26.7
	c-3.8,6-7.1,12.4-9.7,18.9c1.4,0,2.8,0,4.2,0C413,347.5,435.5,354.6,451.8,369.5z"/>
<path id="XMLID_25_" class="st2" d="M395.3,371.8c-3.2,0-6.4,0.2-9.6,0.5c-43.8,4.6-85.7,28.1-104.4,66.7c0.6,1.9,1.2,3.7,1.9,5.5
	c21.2-42.7,68.1-69.1,114.8-68.8C397.5,374.3,396.5,373,395.3,371.8z"/>
<path id="XMLID_27_" class="st10" d="M450.4,387.3c-15.6-11-35-15.7-55.1-15.4c1.2,1.2,2.1,2.4,2.8,3.8c18.1,0.1,36.1,4.2,52.6,12.9
	C450.6,388.1,450.5,387.7,450.4,387.3z"/>
<path id="XMLID_24_" class="st9" d="M283.3,444.5c0.8,2.2,1.8,4.3,2.8,6.4c18.6-42.7,64.7-65.2,109.9-71.9c1-0.2,2-0.4,3.1-0.5
	c-0.2-1-0.5-1.9-1-2.8C351.3,375.4,304.4,401.8,283.3,444.5z"/>
<path id="XMLID_12_" class="st9" d="M288,454.6c0.9,1.7,1.9,3.4,2.9,5c5.6-13.4,16.1-24.6,28-32.9c21.7-15.1,50.1-30.3,78.2-34.7
	c0.9-2,1.6-4.2,2-6.3C355.2,389.5,312.1,418.9,288,454.6z"/>
<path id="XMLID_29_" class="st9" d="M453.5,402.6c-0.3-2.4-0.7-4.8-1.1-7.2c-17-8.5-35.2-11.3-53.3-9.7c-0.4,2.1-1.1,4.3-2,6.3
	C416.9,388.9,436.6,391.1,453.5,402.6z"/>
<path id="XMLID_22_" class="st10" d="M452.4,395.4c-0.3-1.3-0.6-2.7-0.9-4c-16.9-8-33.9-15.3-52.4-12.8c0.5,2.3,0.5,4.7,0,7.1
	C417.2,384.1,435.3,386.9,452.4,395.4z"/>
<path id="XMLID_30_" class="st2" d="M399.1,378.5c-1,0.1-2,0.3-3.1,0.5c-45.2,6.7-91.4,29.2-109.9,71.9c0.6,1.2,1.2,2.5,1.9,3.7
	c24.2-35.7,67.3-65.1,111.1-68.9C399.5,383.2,399.6,380.8,399.1,378.5z"/>
<ellipse id="XMLID_3_" class="st2" cx="403.9" cy="374.4" rx="1.2" ry="1.1"/>
<ellipse id="XMLID_5_" class="st2" cx="407.9" cy="381.4" rx="1.2" ry="1.1"/>
<ellipse id="XMLID_6_" class="st2" cx="410.8" cy="377.7" rx="1.2" ry="1.1"/>
<ellipse id="XMLID_7_" class="st2" cx="418.8" cy="376.2" rx="1.2" ry="1.1"/>
<ellipse id="XMLID_26_" class="st2" cx="418.2" cy="381.4" rx="1.2" ry="1.1"/>
<ellipse id="XMLID_31_" class="st2" cx="428.3" cy="380.6" rx="1.2" ry="1.1"/>
<ellipse id="XMLID_32_" class="st2" cx="437.3" cy="386.3" rx="1.2" ry="1.1"/>
<ellipse id="XMLID_33_" class="st2" cx="435.8" cy="382.1" rx="1.2" ry="1.1"/>
<ellipse id="XMLID_34_" class="st2" cx="446.6" cy="387.3" rx="1.2" ry="1.1"/>
</svg>
